<svg id="svg" xmlns="http://www.w3.org/2000/svg" xmlns:xlink="http://www.w3.org/1999/xlink" width="400" height="395.75971731448766" viewBox="0, 0, 400,395.75971731448766" version="1.1"><g id="svgg"><path id="path0" d="M179.208 40.252 C 178.772 40.331,174.317 40.662,169.307 40.987 C 160.884 41.533,155.235 42.148,143.960 43.744 C 141.564 44.083,139.069 44.524,138.416 44.723 C 137.762 44.922,136.337 45.196,135.248 45.333 C 131.447 45.811,120.728 48.272,113.663 50.288 C 101.855 53.658,102.149 53.403,104.561 58.218 C 105.161 59.416,106.127 61.554,106.707 62.970 C 107.288 64.386,108.011 66.079,108.313 66.733 C 108.616 67.386,109.257 68.990,109.738 70.297 C 110.220 71.604,110.839 73.208,111.115 73.861 C 111.736 75.334,113.970 81.691,114.524 83.564 C 114.749 84.327,115.374 86.287,115.912 87.921 C 116.978 91.158,118.307 95.915,118.845 98.416 C 119.032 99.287,119.557 101.604,120.011 103.564 C 121.593 110.403,122.314 114.686,124.010 127.327 C 124.700 132.472,124.604 145.073,123.850 148.119 C 123.500 149.535,123.099 151.317,122.958 152.079 C 122.378 155.226,119.816 162.741,118.030 166.535 C 114.207 174.655,111.222 180.483,107.482 187.129 C 106.992 188.000,105.657 190.548,104.516 192.790 C 103.375 195.032,102.293 196.959,102.112 197.071 C 101.930 197.183,101.782 197.538,101.782 197.861 C 101.782 198.184,101.408 198.953,100.952 199.571 C 99.140 202.022,99.599 202.228,112.871 204.929 C 114.287 205.217,116.248 205.653,117.228 205.897 C 118.208 206.142,120.614 206.702,122.574 207.142 C 127.006 208.137,132.366 209.419,134.455 209.984 C 135.327 210.220,137.020 210.645,138.218 210.928 C 139.416 211.211,141.822 211.818,143.564 212.277 C 145.307 212.736,147.713 213.360,148.911 213.664 C 154.509 215.083,155.578 215.366,156.853 215.768 C 157.603 216.005,159.554 216.584,161.188 217.056 C 177.269 221.697,185.338 224.551,193.217 228.384 C 196.594 230.026,197.543 230.338,198.020 229.965 C 199.050 229.158,208.188 224.950,208.911 224.950 C 209.063 224.950,209.749 224.710,210.435 224.416 C 212.884 223.366,216.059 222.211,217.228 221.944 C 217.881 221.795,218.594 221.540,218.812 221.377 C 219.030 221.215,219.832 220.953,220.594 220.796 C 221.356 220.639,222.515 220.288,223.168 220.017 C 223.822 219.745,225.158 219.306,226.139 219.041 C 227.119 218.776,228.812 218.294,229.901 217.970 C 230.990 217.646,233.129 217.041,234.653 216.625 C 236.178 216.209,238.762 215.500,240.396 215.050 C 242.030 214.599,244.703 213.862,246.337 213.412 C 249.265 212.605,251.668 212.002,256.139 210.949 C 257.391 210.654,259.129 210.224,260.000 209.994 C 263.608 209.039,268.157 207.948,271.881 207.143 C 274.059 206.673,276.465 206.117,277.228 205.909 C 278.681 205.512,282.777 204.619,287.129 203.750 C 290.210 203.135,293.850 202.124,294.184 201.790 C 294.412 201.561,290.265 193.077,288.455 190.069 C 287.630 188.699,286.264 186.153,281.679 177.432 C 280.478 175.149,279.352 173.010,279.176 172.680 C 278.242 170.921,275.907 165.702,274.655 162.574 C 273.227 159.010,273.061 158.480,271.858 153.663 C 271.504 152.248,271.044 150.554,270.835 149.901 C 269.515 145.773,269.549 131.916,270.903 122.574 C 272.425 112.073,273.786 104.862,275.079 100.450 C 275.390 99.390,275.644 98.306,275.644 98.041 C 275.644 96.878,280.872 79.869,282.014 77.316 C 282.431 76.385,282.772 75.382,282.772 75.089 C 282.772 74.602,283.512 72.714,284.983 69.445 C 285.292 68.759,285.545 68.073,285.545 67.921 C 285.545 67.769,285.836 66.994,286.191 66.198 C 286.547 65.403,287.153 64.040,287.538 63.168 C 287.923 62.297,288.969 60.041,289.863 58.155 C 292.186 53.252,292.993 53.913,280.000 50.069 C 276.007 48.888,267.752 46.913,265.347 46.564 C 264.366 46.422,263.030 46.144,262.376 45.948 C 260.841 45.485,252.981 44.077,248.911 43.535 C 247.168 43.303,243.158 42.764,240.000 42.338 C 236.842 41.913,231.495 41.391,228.119 41.178 C 224.743 40.966,219.787 40.614,217.107 40.396 C 212.659 40.035,181.064 39.914,179.208 40.252 M90.450 219.706 C 89.720 220.435,85.561 228.861,84.537 231.683 C 80.057 244.034,78.844 249.964,78.826 259.604 C 78.814 265.709,80.415 277.023,81.605 279.247 C 81.811 279.632,81.980 280.230,81.980 280.574 C 81.980 282.783,87.375 294.182,90.558 298.697 C 91.370 299.849,92.525 301.505,93.125 302.376 C 95.551 305.897,100.927 311.343,105.347 314.756 C 106.958 316.001,110.472 318.416,110.671 318.416 C 110.773 318.416,111.532 318.876,112.359 319.439 C 118.677 323.739,129.298 326.848,140.814 327.767 C 146.021 328.183,157.409 326.413,161.842 324.499 C 162.528 324.203,163.296 323.960,163.547 323.960 C 164.427 323.960,172.892 319.888,173.891 318.983 C 174.236 318.671,174.639 318.416,174.788 318.416 C 175.155 318.416,178.690 315.935,181.584 313.646 C 184.515 311.328,189.786 305.888,191.930 302.970 C 195.175 298.553,196.436 296.628,196.436 296.092 C 196.436 293.888,176.880 273.915,166.535 265.552 C 157.985 258.640,156.417 257.426,156.049 257.426 C 155.826 257.426,155.644 257.270,155.644 257.079 C 155.644 256.889,154.283 255.775,152.620 254.604 C 150.956 253.433,148.773 251.887,147.768 251.167 C 145.718 249.700,135.416 242.854,132.673 241.137 C 131.693 240.523,130.713 239.873,130.495 239.693 C 130.277 239.513,129.832 239.245,129.505 239.097 C 129.178 238.950,128.198 238.387,127.327 237.846 C 126.455 237.306,124.941 236.434,123.960 235.909 C 122.980 235.384,120.000 233.696,117.338 232.158 C 113.079 229.698,93.607 219.874,91.794 219.270 C 91.417 219.145,90.816 219.340,90.450 219.706 M302.376 219.391 C 300.029 220.128,284.004 228.173,277.426 231.918 C 276.554 232.414,275.307 233.098,274.653 233.439 C 274.000 233.779,272.931 234.409,272.277 234.838 C 271.624 235.267,270.554 235.891,269.901 236.223 C 269.248 236.556,268.089 237.213,267.327 237.683 C 266.564 238.154,265.584 238.737,265.149 238.979 C 264.713 239.221,263.911 239.706,263.366 240.057 C 262.822 240.408,261.129 241.492,259.604 242.466 C 254.749 245.570,250.139 248.615,248.849 249.570 C 248.161 250.079,247.210 250.762,246.734 251.089 C 232.007 261.205,213.511 277.414,203.350 289.109 C 202.309 290.307,201.352 291.376,201.224 291.485 C 198.066 294.163,197.593 296.206,199.479 299.015 C 206.104 308.878,215.277 316.825,225.941 321.940 C 227.030 322.462,228.221 323.036,228.588 323.214 C 240.292 328.906,262.518 328.908,274.383 323.219 C 276.195 322.349,282.883 318.960,283.479 318.609 C 284.580 317.959,286.519 316.669,286.733 316.443 C 286.842 316.327,288.000 315.448,289.307 314.489 C 297.478 308.490,305.289 298.120,310.215 286.733 C 314.546 276.721,316.831 258.439,314.917 249.109 C 313.631 242.837,312.248 237.641,311.465 236.141 C 311.152 235.541,310.895 234.849,310.894 234.605 C 310.887 233.325,304.353 219.556,303.633 219.305 C 303.377 219.216,302.812 219.255,302.376 219.391 " stroke="none" fill="#b48ead" fill-rule="evenodd"></path></g></svg>